<svg id="sign" width="41" height="27" viewBox="0 0 41 27" xmlns="http://www.w3.org/2000/svg">
<!-- TODO fix svg colors -->
<style>
    #sign path {
        fill: #000;
    }
    .dark #sign path {
        fill: #fff;
    }
</style>
<path d="M6.496 26.784C5.344 26.784 4.256 26.5707 3.232 26.144C2.208 25.7387 1.376 25.1093 0.736 24.256C0.117333 23.4027 -0.192 22.336 -0.192 21.056C-0.192 19.9467 0.0213333 19.0827 0.448 18.464C0.896 17.8453 1.44 17.408 2.08 17.152C2.72 16.896 3.328 16.768 3.904 16.768C3.328 17.3867 2.89067 18.0693 2.592 18.816C2.29333 19.5627 2.144 20.3093 2.144 21.056C2.144 21.8453 2.31467 22.5813 2.656 23.264C3.01867 23.9467 3.56267 24.4907 4.288 24.896C5.01333 25.3227 5.93067 25.536 7.04 25.536C8 25.536 8.93867 25.3547 9.856 24.992C10.7733 24.6507 11.52 24.1387 12.096 23.456C12.6933 22.752 12.992 21.888 12.992 20.864C12.992 19.9467 12.7573 19.1573 12.288 18.496C11.8187 17.8347 11.2107 17.248 10.464 16.736C9.73867 16.224 8.96 15.7333 8.128 15.264C7.296 14.7947 6.50667 14.304 5.76 13.792C5.03467 13.2587 4.43733 12.6507 3.968 11.968C3.49867 11.2853 3.264 10.464 3.264 9.504C3.264 8.608 3.47733 7.66933 3.904 6.688C4.33067 5.70667 4.93867 4.77867 5.728 3.904C6.53867 3.02933 7.49867 2.32533 8.608 1.792C9.73867 1.23733 10.9973 0.959999 12.384 0.959999C13.6427 0.959999 14.5173 1.26933 15.008 1.888C15.4987 2.48533 15.744 3.24267 15.744 4.16C15.744 4.928 15.6053 5.76 15.328 6.656C15.072 7.53067 14.752 8.37333 14.368 9.184C13.984 9.97333 13.6213 10.6453 13.28 11.2C12.896 11.1147 12.6187 10.9547 12.448 10.72C12.2987 10.464 12.224 10.1653 12.224 9.824C12.224 9.376 12.32 8.864 12.512 8.288C12.704 7.712 12.9173 7.11467 13.152 6.496C13.408 5.87733 13.632 5.28 13.824 4.704C14.016 4.10667 14.112 3.57333 14.112 3.104C14.112 2.67733 13.984 2.34667 13.728 2.112C13.472 1.856 13.0027 1.728 12.32 1.728C11.3173 1.728 10.3893 1.96267 9.536 2.432C8.68267 2.90133 7.936 3.50933 7.296 4.256C6.656 4.98133 6.15467 5.74933 5.792 6.56C5.45067 7.37067 5.28 8.10667 5.28 8.768C5.28 9.55733 5.504 10.24 5.952 10.816C6.42133 11.3707 7.01867 11.8827 7.744 12.352C8.46933 12.8 9.23733 13.2587 10.048 13.728C10.88 14.176 11.6587 14.6773 12.384 15.232C13.1093 15.7867 13.696 16.448 14.144 17.216C14.6133 17.9627 14.848 18.88 14.848 19.968C14.848 21.0773 14.6027 22.0587 14.112 22.912C13.6213 23.744 12.96 24.448 12.128 25.024C11.3173 25.6 10.4213 26.0373 9.44 26.336C8.45867 26.6347 7.47733 26.784 6.496 26.784ZM16.2685 26.784C16.3965 26.4853 16.7485 25.696 17.3245 24.416C17.9005 23.1573 18.6472 21.5147 19.5645 19.488C20.5032 17.44 21.5485 15.1253 22.7005 12.544C23.8738 9.94133 25.1112 7.18933 26.4125 4.288C26.4765 4.13867 26.5405 3.94667 26.6045 3.712C26.6898 3.456 26.7325 3.21067 26.7325 2.976C26.7325 2.74133 26.6578 2.54933 26.5085 2.4C26.3805 2.22933 26.0925 2.144 25.6445 2.144C24.7485 2.144 24.0018 2.45333 23.4045 3.072C22.8285 3.66933 22.3912 4.416 22.0925 5.312C21.8152 6.208 21.6765 7.09333 21.6765 7.968C21.6765 8.18133 21.6765 8.36267 21.6765 8.512C21.6978 8.66133 21.7192 8.81067 21.7405 8.96C21.3352 8.96 21.0045 8.82133 20.7485 8.544C20.5138 8.24533 20.3325 7.89333 20.2045 7.488C20.0978 7.06133 20.0445 6.67733 20.0445 6.336C20.0445 5.632 20.2365 4.96 20.6205 4.32C21.0045 3.68 21.4952 3.104 22.0925 2.592C22.7112 2.08 23.3832 1.68533 24.1085 1.408C24.8552 1.10933 25.5805 0.959999 26.2845 0.959999C26.9885 0.959999 27.5752 1.16267 28.0445 1.568C28.5352 1.952 28.8978 2.656 29.1325 3.68C29.3885 4.704 29.5165 6.18667 29.5165 8.128C29.5165 9.45067 29.4632 10.8587 29.3565 12.352C29.2712 13.8453 29.1752 15.3173 29.0685 16.768C28.9618 18.2187 28.8872 19.5413 28.8445 20.736C29.1858 19.4347 29.6658 18.048 30.2845 16.576C30.9245 15.104 31.6178 13.6427 32.3645 12.192C33.1325 10.72 33.8898 9.344 34.6365 8.064C35.3832 6.784 36.0552 5.67467 36.6525 4.736C37.2498 3.79733 37.6872 3.11467 37.9645 2.688C38.2632 2.26133 38.5192 1.94133 38.7325 1.728C38.9458 1.49333 39.2232 1.376 39.5645 1.376C39.8632 1.376 40.2045 1.45067 40.5885 1.6C40.4392 1.984 40.2258 2.56 39.9485 3.328C39.6925 4.07467 39.4258 4.992 39.1485 6.08C38.8072 7.38133 38.4658 8.864 38.1245 10.528C37.7832 12.1707 37.4632 13.8453 37.1645 15.552C36.8872 17.2587 36.6632 18.8693 36.4925 20.384C36.3218 21.8773 36.2365 23.136 36.2365 24.16C36.2365 24.6293 36.2578 24.992 36.3005 25.248C36.3432 25.504 36.3965 25.728 36.4605 25.92C36.5458 26.1333 36.6312 26.4213 36.7165 26.784C35.9912 26.784 35.4365 26.6667 35.0525 26.432C34.6685 26.1973 34.4125 25.8133 34.2845 25.28C34.1565 24.768 34.0925 24.0747 34.0925 23.2C34.0925 20.6613 34.4125 17.9413 35.0525 15.04C35.7138 12.1173 36.4605 9.088 37.2925 5.952C36.6738 6.74133 36.0232 7.744 35.3405 8.96C34.6792 10.1547 34.0072 11.456 33.3245 12.864C32.6632 14.2507 32.0232 15.648 31.4045 17.056C30.8072 18.4427 30.2738 19.7333 29.8045 20.928C29.3352 22.1227 28.9725 23.1147 28.7165 23.904C28.5885 23.9467 28.5032 23.9787 28.4605 24C28.4178 24.0213 28.3432 24.032 28.2365 24.032C27.6605 24.032 27.2765 23.6907 27.0845 23.008C26.9138 22.3253 26.8285 21.3653 26.8285 20.128C26.8285 19.2533 26.8498 18.2187 26.8925 17.024C26.9565 15.808 27.0205 14.56 27.0845 13.28C27.1485 12 27.2018 10.7733 27.2445 9.6C27.3085 8.40533 27.3405 7.38133 27.3405 6.528C27.3405 6.10133 27.3298 5.74933 27.3085 5.472C27.3085 5.19467 27.2978 4.94933 27.2765 4.736C25.5698 8.704 24.1405 12.096 22.9885 14.912C21.8365 17.7067 20.8658 19.9787 20.0765 21.728C19.3085 23.4773 18.6258 24.7573 18.0285 25.568C17.4312 26.3787 16.8445 26.784 16.2685 26.784Z" fill="white"/>
</svg>
